M48
;DRILL file {KiCad 4.0.7} date Thursday, 03 May 2018 'AMt' 11:39:34
;FORMAT={-:-/ absolute / metric / decimal}
FMAT,2
METRIC,TZ
T1C0.330
T2C0.800
T3C0.800
T4C0.900
T5C1.016
T6C1.200
T7C1.300
%
G90
G05
M71
T1
X113.03Y-102.235
X113.03Y-136.525
X113.665Y-106.045
X114.935Y-95.885
X119.38Y-92.71
X121.285Y-102.235
X121.467Y-129.449
X125.095Y-108.585
X132.715Y-129.54
X136.525Y-108.585
X138.43Y-135.255
T2
X108.Y-132.715
X108.Y-135.255
X108.Y-137.795
X108.Y-140.335
X108.03Y-126.365
X108.03Y-129.54
X113.03Y-126.365
X113.03Y-129.54
X115.52Y-132.715
X115.52Y-135.255
X115.52Y-137.795
X115.52Y-140.335
X132.795Y-143.51
X133.35Y-105.49
X133.35Y-110.49
X134.67Y-132.715
X134.67Y-135.255
X134.67Y-137.795
X134.67Y-140.335
X137.24Y-129.54
X137.795Y-143.51
X140.335Y-105.49
X140.335Y-110.49
X142.19Y-132.715
X142.19Y-135.255
X142.19Y-137.795
X142.19Y-140.335
X142.24Y-129.54
T3
X109.855Y-78.105
X109.855Y-80.645
X109.855Y-83.185
X109.855Y-85.725
X109.855Y-88.265
X109.855Y-90.805
X109.855Y-93.345
X109.855Y-95.885
X109.855Y-98.425
X109.855Y-100.965
X109.855Y-103.505
X109.855Y-106.045
X117.475Y-106.045
X120.015Y-106.045
X122.555Y-86.995
X122.555Y-89.535
X122.555Y-97.155
X122.555Y-99.695
X122.555Y-106.045
X125.095Y-78.105
X125.095Y-80.645
X125.095Y-83.185
X125.095Y-85.725
X125.095Y-88.265
X125.095Y-90.805
X125.095Y-93.345
X125.095Y-95.885
X125.095Y-98.425
X125.095Y-100.965
X125.095Y-103.505
X125.095Y-106.045
T4
X125.73Y-118.11
X125.73Y-120.65
T5
X130.429Y-98.806
X130.429Y-101.346
X132.969Y-98.806
X132.969Y-101.346
X135.509Y-98.806
X135.509Y-101.346
X138.049Y-98.806
X138.049Y-101.346
T6
X109.22Y-110.49
X109.22Y-113.03
X109.22Y-115.57
X109.22Y-120.015
X109.22Y-122.555
X117.475Y-112.395
X117.475Y-125.095
X120.015Y-132.08
X120.015Y-144.78
X121.92Y-112.395
X121.92Y-125.095
X124.46Y-132.08
X124.46Y-144.78
X128.905Y-132.08
X128.905Y-144.78
X129.54Y-112.395
X129.54Y-125.095
T7
X135.335Y-124.46
X137.835Y-114.46
X140.335Y-124.46
T0
M30
